# xmcd
#
# Track frame offsets: 
#        150
#        92752
#        108833
#        146354
#        180674
#        199641
#        215922
#        229085
#        247559
#        266007
#        285105
#
# Disc length: 4341 seconds
#
# Revision: 0
# Processed by: cddbd v1.5.2PL0 Copyright (c) Steve Scherf et al.
# Submitted via: ExactAudioCopy v0.95a3
#
DISCID=8f10f30b
DTITLE=Jimi Hendrix - Studio 69 (disc14)
DYEAR=2004
DGENRE=Blues
TTITLE0=Power Of Soul aka Paper Aeroplanes (takes 13-23)
TTITLE1=Power Of Soul
TTITLE2=Born Under A Bad Sign 1
TTITLE3=Born Under A Bad Sign 2
TTITLE4=Ezy Rider 1
TTITLE5=Ezy Rider 2
TTITLE6=Ezy Rider 3
TTITLE7=Ezy Rider 4
TTITLE8=Ezy Rider 5
TTITLE9=Earth Blues
TTITLE10=Honeybed (takes1-4) - Night Bird Flying
EXTD=
EXTT0=
EXTT1=
EXTT2=
EXTT3=
EXTT4=
EXTT5=
EXTT6=
EXTT7=
EXTT8=
EXTT9=
EXTT10=
PLAYORDER=
